<svg width="164" height="58" viewBox="0 0 164 58" fill="none" xmlns="http://www.w3.org/2000/svg">
<path d="M24.648 44.064L20.744 47.904L0.968 32.032L20.744 15.456L24.648 19.296L8.904 32.032L24.648 44.064ZM45.9065 52H39.6345L34.1305 46.432V6.944L40.4665 0.671997V46.432H45.9065V52ZM74.151 52H56.807L51.303 46.432V24.352L56.807 18.784H68.647L74.151 24.352V35.424L68.647 40.928H58.407L64.039 35.424H67.879V24.352H57.639V46.432H74.151V52ZM106.427 46.432L100.859 52H89.7865V46.496L83.4505 52.768V7.328L89.7865 0.671997V22.752L93.7545 18.784H100.859L106.427 24.352V46.432ZM100.091 46.432V24.352H89.7865V46.432H100.091ZM137.425 2.208L115.601 57.568H109.776L131.793 2.208H137.425ZM155.526 32.032L139.718 19.296L143.558 15.456L163.398 32.032L143.558 47.904L139.718 44.064L155.526 32.032Z" fill="#141414"/>
</svg>
